<?xml version="1.0" encoding="iso-8859-1"?>
<!-- Uploaded to: SVG Repo, www.svgrepo.com, Generator: SVG Repo Mixer Tools -->
<svg fill="#000000" height="800px" width="800px" version="1.1" id="Layer_1" xmlns="http://www.w3.org/2000/svg" xmlns:xlink="http://www.w3.org/1999/xlink" 
	 viewBox="0 0 512 512" xml:space="preserve">
<g>
	<g>
		<g>
			<path d="M256,106.667c29.461,0,53.333-23.872,53.333-53.333C309.333,23.872,285.461,0,256,0s-53.333,23.872-53.333,53.333
				C202.667,82.795,226.539,106.667,256,106.667z"/>
			<path d="M394.667,234.667H117.333c-23.531,0-42.667,19.136-42.667,42.667c0,23.531,19.136,42.667,42.667,42.667h1.109
				l20.288,182.507c0.597,5.419,5.163,9.493,10.603,9.493h213.333c5.44,0,10.005-4.075,10.603-9.493L393.557,320h1.109
				c23.531,0,42.667-19.136,42.667-42.667C437.333,253.803,418.197,234.667,394.667,234.667z"/>
			<path d="M184,213.333h144c3.072,0,5.973-1.323,8-3.605c2.027-2.304,2.965-5.355,2.581-8.384l-3.328-26.624
				c-3.328-26.645-26.069-46.72-52.907-46.72h-52.672c-26.837,0-49.6,20.075-52.907,46.72l-3.328,26.624
				c-0.384,3.029,0.555,6.08,2.581,8.384C178.027,212.011,180.928,213.333,184,213.333z"/>
		</g>
	</g>
</g>
</svg>