<svg width="64mm" height="64mm" version="1.1" viewBox="0 0 64 64" xmlns="http://www.w3.org/2000/svg"><path d="m40.897 5.6349c-0.43522 0.16501-0.79046 0.49719-0.98358 0.92816-0.18735 0.41793-0.2032 0.91397-0.03603 1.3496 0.16573 0.43666 0.50728 0.79637 0.9265 0.98415 0.41937 0.18807 0.91512 0.20392 1.3512 0.03603 0.43522-0.16501 0.79536-0.508 0.98264-0.926 0.19239-0.42946 0.20896-0.92687 0.03603-1.3518-0.33146-0.87232-1.406-1.3538-2.2778-1.0207zm14.299 5.6335c-0.48134-0.58582-0.96988-1.161-1.4707-1.7247-0.02882-0.03603-0.05044-0.07782-0.08143-0.11529-0.3992-0.44603-0.60456-1.1781-0.84206-2.0249-0.61608-2.1931-1.4616-5.2002-6.4005-6.8495-3.1107-1.0391-6.1752-0.41649-9.4194 0.24139-1.8455 0.37542-3.7531 0.76308-5.8006 0.8752-1.1824 0.06485-2.1902 0.54619-2.9166 1.3895-0.22626 0.26373-0.40568 0.55628-0.5606 0.85964-6.9234 0.85582-13.546 3.9418-18.346 8.6465-6.3485 6.2238-9.4201 15.477-8.2168 24.754 0.69174 5.2333 2.8712 10.381 6.3037 14.885 2.2165 2.9079 6.3527 6.6539 11.89 9.1354 6.2552 2.803 14.296 3.992 23.363 0.5361 7.7083-2.9386 13.922-8.6307 17.5-16.031 5.261-10.891 3.2974-24.464-5.0022-34.578zm-26.186 0.8257c0.99539 0.87952 2.2496 1.4867 3.4853 2.0804 0.49071 0.23563 1.0054 0.48278 1.5337 0.76078 1.0429 0.54619 1.4843 0.97478 2.0432 1.5155 0.62473 0.60744 1.3338 1.2931 2.7647 2.1136 0.16717 0.09584 0.33723 0.18086 0.50872 0.25796 0.7994 0.35812 1.6241 0.49287 2.4251 0.50512 1.1484 0.95843 2.1376 2.0016 3.0188 3.2222 1.8025 2.5017 2.9265 5.6451 3.1665 8.8554 0.19743 2.6688-0.21041 5.2626-1.2194 7.8692-0.2241 0.50512-1.2398 2.5912-1.9456 3.5328-1.905 2.5382-4.1346 4.4187-6.6261 5.5936-4.758 2.2455-9.7041 2.3398-14.308 0.2767l-0.01441-0.0067c-1.7879-0.80113-4.5463-2.4307-6.4492-4.3916-2.313-2.3846-4.009-5.5585-4.7694-8.926-0.79997-3.6794-0.51448-7.3057 0.87491-11.085 0.32137-0.87635 1.7072-3.5016 2.9133-4.9841 1.5123-1.8575 3.5316-3.502 5.8414-4.7583 2.0005-1.093 4.3425-1.9027 6.7569-2.4308zm24.768 36.072-0.31561-1.5076c-0.19888-0.95598-1.1342-1.5687-2.0891-1.3697-0.9549 0.19888-1.5677 1.1348-1.3691 2.0907l0.57141 2.7357c0.11745 0.56348 0.49935 1.0223 1.0074 1.25 0.14051 0.06485 0.29399 0.10448 0.45396 0.12754-1.5319 1.6191-3.2498 3.0516-5.1257 4.2753l-0.69967-0.31345 0.21185-1.5552c0.13114-0.96686-0.54907-1.8586-1.5123-1.986-0.96592-0.1333-1.8563 0.54331-1.9876 1.5104l-0.38911 2.8639c-0.07999 0.59663 0.15132 1.1735 0.58438 1.5573-0.55412 0.25148-1.1045 0.51304-1.6786 0.73152-1.6041 0.61104-3.1692 1.0492-4.6951 1.3563l-0.31201-0.37181 0.61825-0.78614c0.60168-0.76647 0.46909-1.876-0.29904-2.4795-0.76827-0.606-1.8776-0.46837-2.479 0.29832l-1.503 1.9145c-0.44315 0.56565-0.47125 1.3164-0.13907 1.9258-2.6983 0.11097-5.2331-0.19816-7.5701-0.80156l-0.01441-0.08719 1.066-0.68598c0.81921-0.52962 1.0574-1.6226 0.52818-2.4419-0.5289-0.8213-1.6206-1.0564-2.4408-0.52746l-2.0319 1.3098c-0.42297 0.27382-0.69679 0.7112-0.77735 1.1934-2.4298-1.0153-4.5706-2.31-6.3699-3.6788l0.67229-0.31128c0.88536-0.40928 1.2704-1.4589 0.86238-2.3448-0.41-0.88435-1.4593-1.2694-2.3447-0.85978l-2.1088 0.97478c-0.72345-0.72928-1.3449-1.4413-1.8495-2.1061-0.71841-0.94128-1.3741-1.929-1.9714-2.9424l0.36965-0.05044c0.96844-0.12826 1.6482-1.0148 1.5202-1.9817-0.12682-0.96642-1.0141-1.644-1.9817-1.5202l-1.6042 0.21113c-0.66869-1.5574-1.1808-3.152-1.5424-4.7462l0.28174 0.06485c0.94856 0.2241 1.9001-0.36533 2.1239-1.3164 0.22266-0.94913-0.36389-1.8997-1.3147-2.1219l-1.6486-0.38911c-0.54331-7.636 2.1434-15.088 7.3438-20.186 4.0003-3.9203 9.4428-6.5505 15.203-7.4877 0.0072 0.21329 0.02162 0.41865 0.04323 0.61392 0.02162 0.24788 0.05764 0.48062 0.10448 0.70472-2.3637 0.59375-4.6379 1.4219-6.6134 2.4991-2.7471 1.4951-5.0657 3.39-6.8917 5.6307-1.5644 1.9219-3.0815 4.8816-3.4912 5.9972-1.6041 4.3658-1.9437 8.7601-1.0063 13.069 0.90611 4.0069 2.9246 7.7769 5.6823 10.62 2.2495 2.3189 5.3678 4.1819 7.5381 5.1544l0.02162 0.0072c5.4914 2.4607 11.62 2.3516 17.256-0.30552 3.0185-1.4212 5.6923-3.6627 7.9459-6.6678 1.062-1.4142 2.3118-4.1196 2.39-4.3142 1.228-3.1667 1.7101-6.2637 1.4756-9.4717-0.29039-3.8521-1.6476-7.638-3.8246-10.657-0.56853-0.78643-1.1783-1.5137-1.8336-2.2021 0.24211-0.13763 0.45972-0.27526 0.62617-0.40424 0.77036-0.59951 0.90828-1.7102 0.3084-2.4769-0.59591-0.76892-1.7086-0.90885-2.477-0.31128-0.39559 0.30912-2.3411 1.2139-3.6875 0.40928-1.0488-0.59879-1.5187-1.0534-2.0623-1.5821-0.63986-0.62185-1.3669-1.326-2.8609-2.109-0.56564-0.29832-1.1164-0.56348-1.6425-0.81727-2.4892-1.1967-3.3038-1.7023-3.4364-3.1023-0.13114-1.4094 0.10664-2.2396 0.35092-2.5213 0.05044-0.05764 0.1297-0.1506 0.43594-0.16717 2.305-0.12826 4.4311-0.55988 6.3084-0.94041 2.8889-0.58798 5.3824-1.0935 7.5992-0.35452 3.1582 1.0655 3.5845 2.5558 4.1177 4.4551 0.31128 1.1072 0.66436 2.3645 1.6059 3.4212 0 0 0.41289 0.45468 1.4583 1.7295 0.96354 1.1723 1.8267 2.4016 2.5986 3.6647l-0.5289 0.93465-1.5149-0.67878c-0.88961-0.39847-1.9352-1.44e-4 -2.3338 0.88947-0.39847 0.88961-1.44e-4 1.9352 0.88947 2.3338l2.9816 1.3361c0.83052 0.37181 1.8108 0.05044 2.2594-0.74089l0.196-0.34804c0.85294 1.9317 1.4949 3.9224 1.9234 5.9374l-0.77555 0.7633-1.2808-1.0229c-0.75782-0.60888-1.8709-0.48638-2.4821 0.27598-0.60816 0.76099-0.48494 1.8715 0.27598 2.4821l2.5049 2.0023c0.11817 0.09584 0.24715 0.17366 0.38046 0.23346 0.64923 0.29111 1.4326 0.16573 1.9607-0.3538l0.0031-0.0038c0.12538 2.1422 2e-3 4.2766-0.36605 6.3654l-0.96837 0.36749-0.96131-1.4939c-0.52746-0.8208-1.6206-1.0564-2.4419-0.52818-0.8182 0.52746-1.0565 1.6206-0.52818 2.4393l1.7353 2.6948c0.19095 0.29688 0.45756 0.51953 0.76135 0.65572 0.40064 0.17942 0.8654 0.1996 1.3026 0.05044-0.30624 0.86252-0.64202 1.7157-1.0431 2.5438-0.67733 1.4021-1.4821 2.7173-2.3633 3.9726z" stroke-width="1.1774"/></svg>
